Coordinates
version=1
nRows=11
nColumns=36
inDegrees=yes

Units are S.I. units (second, meters, Newtons, ...)
If the header above contains a line with 'inDegrees', this indicates whether rotational values are in degrees (yes) or radians (no).

endheader
time	pelvis_tilt	pelvis_list	pelvis_rotation	pelvis_tx	pelvis_ty	pelvis_tz	hip_flexion_r	hip_adduction_r	hip_rotation_r	knee_angle_r	knee_angle_r_beta	ankle_angle_r	subtalar_angle_r	mtp_angle_r	hip_flexion_l	hip_adduction_l	hip_rotation_l	knee_angle_l	knee_angle_l_beta	ankle_angle_l	subtalar_angle_l	mtp_angle_l	lumbar_extension	lumbar_bending	lumbar_rotation	arm_flex_r	arm_add_r	arm_rot_r	elbow_flex_r	pro_sup_r	arm_flex_l	arm_add_l	arm_rot_l	elbow_flex_l	pro_sup_l
      0.00000000	     -2.77293015	     -3.06099108	      4.41954479	     -0.19764936	      0.86970786	      0.06432339	     13.89690343	      3.64901501	      3.26412806	     16.76695482	      0.29263857	      4.91430043	     -9.19979728	     -5.75433508	     11.95766031	     -0.47948196	      0.72624267	     12.88157628	      0.22482592	     10.34915955	      0.25412602	     -5.75433508	     -1.43928539	      0.80644284	     -2.13133487	     30.34164883	     11.16117389	     57.80898557	    125.66153574	    109.01041431	     31.15936757	      6.78139835	     52.23119005	    128.43952984	    105.69589916
      0.01666670	     -4.27340354	     -2.73692240	      4.22411202	     -0.19788962	      0.87040080	      0.06285020	     15.85181292	      3.22621178	      3.79956848	     17.49496887	      0.30534481	      7.57123585	     -7.89086620	     -6.23206296	     13.75276789	      0.35206001	      2.14649157	     13.08091933	      0.22830511	     10.29211771	      0.24471102	     -6.23206296	      0.76678823	     -0.09799361	     -1.13116117	     29.51533703	     10.17932477	     58.05108891	    127.99252050	    105.65858000	     32.02025473	      6.90182275	     55.02449643	    129.28585613	    102.56987350
      0.03333330	     -5.18808442	     -1.96033777	      3.71895361	     -0.19811144	      0.86917412	      0.06164248	     16.48752022	      2.43620205	      3.57218158	     16.70703749	      0.29159281	      7.90627154	     -7.70220270	     -6.36421758	     14.74827189	      1.20456288	      1.71248431	     12.86313961	      0.22450414	      9.82738781	      0.30300662	     -6.36421758	      2.03348040	     -1.35186132	     -0.05880606	     28.05088453	      9.83795386	     58.32279732	    128.61508717	    103.11138266	     32.16937443	      7.06198084	     56.31906827	    130.06384157	     99.96450863
      0.05000000	     -5.11252221	     -1.68698923	      3.14860200	     -0.19766309	      0.87137527	      0.06166277	     16.24708047	      2.23212994	      3.69218062	     16.32975435	      0.28500798	      7.77243018	     -7.49620010	     -6.48172005	     14.40023234	      1.41466631	      1.73949126	     12.40849544	      0.21656910	      9.57298855	      0.00125039	     -6.48172005	      2.12397294	     -1.78356148	      0.71211550	     27.04847349	      9.85447557	     58.85909922	    128.34512851	    101.44548710	     32.40431504	      7.23551111	     57.52482972	    130.33155813	     97.56038796
      0.06666670	     -5.06875988	     -1.64546729	      2.86776404	     -0.19577271	      0.87235486	      0.06070028	     15.89467464	      2.18698409	      3.74246055	     15.86525457	      0.27690093	      7.58285424	     -7.45067152	     -6.79405514	     14.02814121	      1.48637058	      1.75365554	     12.00114393	      0.20945948	      9.27044538	     -0.34198663	     -6.79405514	      2.44414196	     -1.86161332	      1.14671294	     25.81147106	      9.91408688	     59.57915829	    128.01167742	     98.96713710	     32.64243733	      7.59232037	     58.79281744	    130.19724025	     90.07405984
      0.08333330	     -4.80551384	     -1.62411507	      2.68983330	     -0.19559804	      0.87465655	      0.05864426	     15.27261278	      2.09932050	      3.70270640	     15.46264139	      0.26987400	      7.27624029	     -7.30302998	     -6.87038534	     13.60947791	      1.55357856	      1.61738018	     11.95816814	      0.20870941	      8.90453269	     -0.58403460	     -6.87038534	      2.55194279	     -1.80323385	      1.22001980	     25.24942023	     10.06059969	     59.86133169	    127.56753367	     97.60620836	     32.78611369	      7.80170574	     59.15886410	    130.09574569	     88.05827850
      0.10000000	     -4.51591256	     -1.70467983	      2.57954004	     -0.19500487	      0.87265468	      0.05889844	     14.74388579	      2.12708370	      3.59147223	     15.13479849	      0.26415207	      7.14363200	     -7.46127712	     -6.92486232	     13.22173534	      1.49853026	      1.64463387	     11.93283187	      0.20826721	      8.88201355	     -0.88216124	     -6.92486232	      2.67159910	     -1.63766175	      1.30640255	     24.79879033	     10.03089990	     60.02116538	    127.43182106	     96.32714225	     32.92740191	      8.30882759	     59.60194778	    129.91485868	     86.55758724
      0.11666670	     -4.23102579	     -1.76450790	      2.46797224	     -0.19560180	      0.87366706	      0.05786556	     14.23283431	      2.13292425	      3.49295562	     14.78581740	      0.25806120	      6.95136205	     -7.59968386	     -6.97628533	     12.86648225	      1.53004701	      1.81676423	     11.82153062	      0.20632463	      8.89692340	     -0.92276358	     -6.97628533	      2.81237058	     -1.54777037	      1.43741389	     24.83426792	      9.88439141	     60.09053730	    127.47218354	     94.69513061	     33.23663019	      8.94111790	     60.04493597	    129.47105347	     84.72981317
      0.13333330	     -3.89583135	     -1.83207533	      2.40338885	     -0.19504563	      0.87719712	      0.05805995	     13.66893315	      2.15188898	      3.20085954	     14.41664574	      0.25161794	      6.93967751	     -7.33117363	     -7.04690553	     12.44010995	      1.46190085	      1.78328379	     11.69406891	      0.20410001	      8.71974156	     -1.05452533	     -7.04690553	      2.79596175	     -1.45587726	      1.60550076	     25.02369082	      9.68799996	     59.98045701	    127.33559403	     92.64971988	     33.40045819	      9.26201996	     60.43769556	    129.19185577	     83.06333649
      0.15000000	     -3.57953795	     -1.87369648	      2.21012467	     -0.19618905	      0.87632035	      0.05741974	     13.18474853	      2.18399774	      3.20893259	     14.07615727	      0.24567529	      6.58430879	     -7.78700992	     -7.06900149	     12.07208827	      1.45159329	      2.00806128	     11.50134105	      0.20073627	      8.50382360	     -1.25834084	     -7.06900149	      2.77254465	     -1.39559597	      1.77492969	     25.49091454	      9.48234158	     59.75038050	    127.27171247	     91.93080805	     33.75923309	      9.71981200	     60.88823731	    128.75401335	     82.07266101
      0.16666670	     -3.32670797	     -1.98568473	      1.99111675	     -0.19573565	      0.87397431	      0.05739822	     12.86990985	      2.31913267	      3.29935020	     13.91304129	      0.24282838	      6.45479995	     -8.09064654	     -7.15883391	     11.74027907	      1.31238845	      2.18886420	     11.38473219	      0.19870106	      8.56324018	     -1.48359571	     -7.15883391	      2.86847963	     -1.33363361	      1.91567060	     25.90316732	      9.38415301	     59.59079568	    127.56491438	     90.68562477	     34.12228576	     10.21247468	     61.36711310	    128.45938041	     79.54355386
